<?xml version="1.0" encoding="UTF-8"?>
<svg width="1440px" height="800px" viewBox="0 0 1440 800" version="1.1" xmlns="http://www.w3.org/2000/svg" xmlns:xlink="http://www.w3.org/1999/xlink">
    <!-- Generator: Sketch 63.1 (92452) - https://sketch.com -->
    <title>Group 2</title>
    <desc>Created with Sketch.</desc>
    <defs>
        <rect id="path-1" x="0" y="0" width="1440" height="800"></rect>
        <polygon id="path-3" points="0 0 2535 0 2535 2535 0 2535"></polygon>
    </defs>
    <g id="Page-1" stroke="none" stroke-width="1" fill="none" fill-rule="evenodd">
        <g id="Group-2">
            <mask id="mask-2" fill="white">
                <use xlink:href="#path-1"></use>
            </mask>
            <use id="Rectangle" fill="#EAD7C0" xlink:href="#path-1"></use>
            <g id="Group-3" mask="url(#mask-2)">
                <g transform="translate(273.000000, -1497.000000)">
                    <mask id="mask-4" fill="white">
                        <use xlink:href="#path-3"></use>
                    </mask>
                    <g id="Clip-2" stroke="none" fill="none"></g>
                    <path d="M1511.38448,2493.46097 C1500.6151,2492.90152 1511.13972,2487.13221 1511.13972,2487.13221 C1511.13972,2487.13221 1510.65021,2487.25459 1509.98586,2487.39445 C1512.31107,2486.46786 1514.68872,2485.61121 1517.01393,2484.63217 C1536.01769,2476.60759 1554.88159,2467.51655 1573.06366,2457.62131 C1591.17579,2447.796 1608.95576,2436.99166 1625.91403,2425.50548 C1642.88979,2414.05428 1659.49841,2401.64152 1675.26786,2388.61686 C1691.01983,2375.62717 1706.33472,2361.7109 1720.79297,2347.25266 C1735.21624,2332.82938 1749.13252,2317.51448 1762.17466,2301.72755 C1775.16434,2285.97559 1787.5771,2269.38445 1799.06328,2252.37372 C1810.61938,2235.2581 1821.42372,2217.47814 1831.1791,2199.52334 C1841.0219,2181.37624 1850.11293,2162.51234 1858.155,2143.4911 C1866.28448,2124.33 1873.53983,2104.50455 1879.72872,2084.57421 C1885.98755,2064.52148 1891.28483,2043.83938 1895.55062,2023.13979 C1899.81641,2002.21293 1903.06821,1980.79655 1905.23607,1959.48507 C1906.40741,1948.06883 1907.2291,1936.54769 1907.77107,1924.99159 C1908.20814,1905.39341 1924.11745,1902.73603 1929.30983,1902.40386 L2316.74524,1902.40386 C2317.93407,1902.42134 2342.25259,1903.06821 2330.29438,1924.55452 C2150.71148,2213.94662 1856.44169,2424.92855 1511.38448,2493.46097 L1511.38448,2493.46097 Z M204.897931,1924.85172 C192.502655,1903.05072 217.118379,1902.42134 218.289724,1902.40386 L604.518828,1902.40386 C623.872241,1902.771 626.774379,1918.17331 627.193966,1923.6629 C627.735931,1935.65607 628.540138,1947.61428 629.746448,1959.48507 C631.91431,1980.79655 635.183586,2002.21293 639.449379,2023.15728 C643.69769,2043.83938 649.012448,2064.52148 655.253793,2084.57421 C661.460172,2104.50455 668.715517,2124.33 676.827517,2143.47362 C684.887069,2162.51234 693.960621,2181.37624 703.820897,2199.52334 C713.558793,2217.47814 724.363138,2235.2581 735.936724,2252.39121 C747.422897,2269.38445 759.835655,2285.97559 772.825345,2301.72755 C785.867483,2317.51448 799.783759,2332.82938 814.207034,2347.25266 C828.647793,2361.7109 843.96269,2375.62717 859.732138,2388.61686 C875.501586,2401.64152 892.092724,2414.05428 909.068483,2425.50548 C926.044241,2436.99166 943.806724,2447.796 961.901379,2457.62131 C980.100931,2467.51655 998.964828,2476.60759 1017.9511,2484.61469 C1019.82176,2485.40141 1021.72738,2486.06576 1023.61552,2486.835 C1023.14348,2486.7301 1022.86376,2486.66017 1022.86376,2486.66017 C1022.86376,2486.66017 1034.3849,2492.919 1021.43017,2493.07634 C677.421931,2424.10686 384.11369,2213.47459 204.897931,1924.85172 L204.897931,1924.85172 Z M1229.05541,18.4617931 C1236.20586,19.3534138 1248.51372,23.3569655 1238.7059,41.1019655 C1238.7059,41.1019655 1238.77583,41.0145517 1238.77583,41.0145517 L191.191448,1855.49762 L191.226414,1855.41021 C180.17731,1874.55383 169.53031,1862.73548 165.771517,1857.36828 C71.2422414,1681.56166 17.4827586,1480.71972 17.4827586,1267.5 C17.4827586,591.127034 557.542655,38.9166207 1229.05541,18.4617931 L1229.05541,18.4617931 Z M2517.51724,1267.5 C2517.51724,1480.82462 2463.70531,1681.75397 2369.1061,1857.63052 C2365.18997,1863.08514 2354.70031,1874.25662 2343.80855,1855.41021 C2343.80855,1855.41021 2343.91345,1855.68993 2343.94841,1855.75986 L1295.54234,39.8606897 C1293.09476,34.8781034 1287.58769,19.9128621 1306.90614,18.4967586 C1977.94686,39.4236207 2517.51724,591.459207 2517.51724,1267.5 L2517.51724,1267.5 Z M1931.12803,1884.92501 C1906.96686,1884.88614 1907.78855,1861.52917 1907.78855,1861.52917 L1907.75359,1861.94876 C1907.19414,1850.72483 1906.37245,1839.53586 1905.23607,1828.41683 C1903.06821,1807.10534 1899.81641,1785.68897 1895.55062,1764.7621 C1891.28483,1744.06252 1885.98755,1723.3979 1879.72872,1703.32769 C1873.52234,1683.36238 1866.267,1663.53693 1858.17248,1644.42828 C1850.13041,1625.42452 1841.05686,1606.5781 1831.1791,1588.37855 C1821.40624,1570.42376 1810.61938,1552.64379 1799.06328,1535.52817 C1787.59459,1518.53493 1775.18183,1501.94379 1762.17466,1486.17434 C1749.18497,1470.43986 1735.25121,1455.12497 1720.79297,1440.64924 C1706.33472,1426.20848 1691.01983,1412.29221 1675.26786,1399.30252 C1659.56834,1386.31283 1642.94224,1373.88259 1625.93152,1362.39641 C1608.97324,1350.92772 1591.19328,1340.12338 1573.06366,1330.2631 C1554.84662,1320.38534 1536.00021,1311.29431 1517.01393,1303.26972 C1497.85283,1295.15772 1478.02738,1287.90238 1458.11452,1281.71348 C1437.97438,1275.45466 1417.29228,1270.12241 1396.6801,1265.92655 C1375.68331,1261.62579 1354.28441,1258.35652 1333.04286,1256.20614 C1289.73807,1251.81797 1245.24445,1251.81797 1201.95714,1256.20614 C1180.71559,1258.35652 1159.29921,1261.62579 1138.30241,1265.92655 C1117.69024,1270.12241 1097.02562,1275.45466 1076.868,1281.71348 C1056.97262,1287.90238 1037.14717,1295.15772 1017.96859,1303.26972 C998.98231,1311.29431 980.135897,1320.38534 961.901379,1330.2631 C943.789241,1340.12338 926.026759,1350.92772 909.068483,1362.39641 C892.040276,1373.88259 875.431655,1386.31283 859.732138,1399.28503 C843.96269,1412.29221 828.647793,1426.20848 814.207034,1440.64924 C799.748793,1455.12497 785.815034,1470.43986 772.825345,1486.17434 C759.818172,1501.94379 747.405414,1518.53493 735.936724,1535.52817 C724.363138,1552.64379 713.576276,1570.42376 703.820897,1588.37855 C693.925655,1606.5781 684.869586,1625.42452 676.845,1644.42828 C668.733,1663.53693 661.477655,1683.36238 655.253793,1703.32769 C649.012448,1723.3979 643.69769,1744.06252 639.449379,1764.7621 C635.183586,1785.68897 631.91431,1807.10534 629.746448,1828.41683 C628.592586,1839.86803 627.770897,1851.42414 627.228931,1862.99772 C626.267379,1884.23928 606.791586,1884.92501 604.483862,1884.92501 L221.663897,1884.92501 C195.037655,1885.27076 207.642724,1862.01869 207.835034,1861.5991 L1254.26555,49.1615172 C1256.71314,45.3852414 1268.98603,28.5493448 1281.20648,50.0181724 C1281.20648,50.0181724 1281.17152,49.9132759 1281.15403,49.8957931 L2327.56707,1862.33338 C2329.42024,1866.10966 2337.63714,1885.23579 2313.37107,1884.92501 L1931.12803,1884.92501 Z M1867.50828,1884.92139 L668.103621,1884.92139 C644.344552,1884.88614 644.729172,1862.43828 644.75927,1861.66903 C645.288621,1851.14441 646.075345,1840.61979 647.12431,1830.20007 C649.257207,1809.44803 652.421586,1788.60859 656.582483,1768.27614 C660.708414,1748.136 665.88331,1728.03083 671.949828,1708.52007 C677.998862,1689.09672 685.044414,1669.83072 692.946621,1651.22907 C700.743931,1632.76728 709.572724,1614.41038 719.188241,1596.73531 C728.663897,1579.25255 739.171034,1561.94462 750.412448,1545.31852 C761.566448,1528.77983 773.664517,1512.62576 786.304552,1497.31086 C798.944586,1481.99597 812.493724,1467.08317 826.567345,1453.00955 C840.623483,1438.95341 855.518793,1425.42176 870.851172,1412.76424 C886.131103,1400.14169 902.285172,1388.0611 918.858828,1376.87214 C935.345069,1365.73562 952.635517,1355.22848 970.258138,1345.63045 C987.985655,1336.01493 1006.30759,1327.18614 1024.76938,1319.37134 C1043.42348,1311.48662 1062.70697,1304.42359 1082.06038,1298.40952 C1101.65855,1292.30803 1121.76372,1287.15062 1141.81645,1283.04217 C1162.21883,1278.86379 1183.05828,1275.69941 1203.7229,1273.60148 C1224.77214,1271.46859 1246.24097,1270.38466 1267.5,1270.38466 C1288.75903,1270.38466 1310.21038,1271.46859 1331.25962,1273.60148 C1351.94172,1275.69941 1372.76369,1278.86379 1393.16607,1283.04217 C1413.23628,1287.15062 1433.32397,1292.30803 1452.92214,1298.40952 C1472.29303,1304.42359 1491.55903,1311.48662 1510.23062,1319.37134 C1528.67493,1327.18614 1547.01434,1336.01493 1564.72438,1345.63045 C1582.36448,1355.22848 1599.65493,1365.73562 1616.12369,1376.87214 C1632.69734,1388.0611 1648.85141,1400.14169 1664.13134,1412.78172 C1679.46372,1425.42176 1694.37652,1438.95341 1708.43266,1453.00955 C1722.48879,1467.08317 1736.05541,1481.99597 1748.67797,1497.31086 C1761.33548,1512.62576 1773.41607,1528.77983 1784.58755,1545.31852 C1795.82897,1561.94462 1806.31862,1579.25255 1815.81176,1596.73531 C1825.42728,1614.41038 1834.25607,1632.76728 1842.07086,1651.22907 C1849.9381,1669.83072 1857.00114,1689.09672 1863.03269,1708.52007 C1869.11669,1728.03083 1874.29159,1748.136 1878.40003,1768.27614 C1882.56093,1788.60859 1885.74279,1809.44803 1887.85821,1830.18259 C1888.95962,1840.98693 1889.76383,1851.87869 1890.28831,1862.78793 C1889.46662,1884.23928 1869.83348,1884.93859 1867.50828,1884.92139 L1867.50828,1884.92139 Z M1452.92214,2489.4749 C1433.42886,2495.5589 1413.34117,2500.73379 1393.16607,2504.84224 C1372.83362,2509.0381 1352.02914,2512.20248 1331.25962,2514.30041 C1320.8399,2515.36686 1310.28031,2516.17107 1299.66828,2516.69555 C1295.73466,2516.80045 1291.80103,2516.94031 1287.86741,2517.01024 C1274.28331,2517.42983 1260.69921,2517.42983 1247.13259,2517.01024 C1243.18148,2516.94031 1239.26534,2516.80045 1235.33172,2516.69555 C1224.71969,2516.17107 1214.1601,2515.36686 1203.7229,2514.30041 C1182.97086,2512.20248 1162.1489,2509.0381 1141.81645,2504.84224 C1121.65883,2500.73379 1101.57114,2495.5589 1082.06038,2489.4749 C1062.74193,2483.49579 1043.45845,2476.43276 1024.76938,2468.51307 C1006.2901,2460.71576 987.968172,2451.88697 970.258138,2442.25397 C952.653,2432.6909 935.362552,2422.18376 918.841345,2411.02976 C902.337621,2399.87576 886.201034,2387.79517 870.851172,2375.12017 C855.518793,2362.49762 840.623483,2348.94848 826.567345,2334.89234 C812.52869,2320.85369 798.997034,2305.9409 786.304552,2290.59103 C773.664517,2275.29362 761.583931,2259.13955 750.412448,2242.60086 C739.171034,2225.93979 728.663897,2208.64934 719.188241,2191.18407 C709.590207,2173.52648 700.761414,2155.18707 692.929138,2136.67283 C685.044414,2118.03621 677.981379,2098.77021 671.949828,2079.38183 C665.88331,2059.87107 660.708414,2039.78338 656.582483,2019.64324 C652.421586,1999.27583 649.257207,1978.45386 647.12431,1957.70183 C646.040379,1946.93245 645.236172,1936.05817 644.71169,1925.1839 C645.026379,1905.39341 661.058069,1902.73603 666.285414,1902.40386 L1867.56072,1902.40386 C1887.85821,1902.78848 1890.07852,1919.83417 1890.30579,1924.50207 C1889.78131,1935.6211 1888.9771,1946.72266 1887.85821,1957.70183 C1885.74279,1978.45386 1882.56093,1999.27583 1878.40003,2019.62576 C1874.29159,2039.78338 1869.11669,2059.87107 1863.03269,2079.38183 C1857.01862,2098.77021 1849.9381,2118.03621 1842.05338,2136.69031 C1834.23859,2155.18707 1825.40979,2173.52648 1815.81176,2191.18407 C1806.3361,2208.64934 1795.82897,2225.93979 1784.58755,2242.58338 C1773.39859,2259.13955 1761.33548,2275.29362 1748.67797,2290.59103 C1736.00297,2305.9409 1722.45383,2320.85369 1708.43266,2334.89234 C1694.37652,2348.94848 1679.46372,2362.49762 1664.13134,2375.12017 C1648.78148,2387.79517 1632.66238,2399.87576 1616.12369,2411.02976 C1599.63745,2422.18376 1582.347,2432.6909 1564.72438,2442.25397 C1547.03183,2451.88697 1528.69241,2460.71576 1510.21314,2468.51307 C1491.52407,2476.43276 1472.25807,2483.49579 1452.92214,2489.4749 L1452.92214,2489.4749 Z M2535,1267.5 C2535,568.609241 1966.39076,0 1267.5,0 C568.591759,0 0,568.609241 0,1267.5 C0,1955.30669 550.79431,2516.50324 1234.42262,2534.16083 C1245.40179,2534.70279 1256.46838,2535 1267.5,2535 C1278.53162,2535 1289.58072,2534.70279 1300.5599,2534.16083 C1984.20569,2516.50324 2535,1955.30669 2535,1267.5 L2535,1267.5 Z" id="Fill-1" stroke="none" fill="#B38A6B" fill-rule="evenodd" mask="url(#mask-4)"></path>
                </g>
            </g>
        </g>
    </g>
</svg>