<?xml version="1.0" encoding="UTF-8"?>
<svg width="1440px" height="800px" viewBox="0 0 1440 800" version="1.1" xmlns="http://www.w3.org/2000/svg" xmlns:xlink="http://www.w3.org/1999/xlink">
    <!-- Generator: Sketch 63.1 (92452) - https://sketch.com -->
    <title>Group 2</title>
    <desc>Created with Sketch.</desc>
    <defs>
        <polygon id="path-1" points="-0.0046875 0 392.995313 0 392.995313 393 -0.0046875 393"></polygon>
        <polygon id="path-3" points="0.000704364326 0.444068182 28.5996569 0.444068182 28.5996569 39 0.000704364326 39"></polygon>
        <polygon id="path-5" points="0.536541667 0.444068182 29.2966458 0.444068182 29.2966458 39 0.536541667 39"></polygon>
    </defs>
    <g id="Page-1" stroke="none" stroke-width="1" fill="none" fill-rule="evenodd">
        <g id="Genome-Copy-2" transform="translate(0.000000, -460.000000)">
            <g id="Group-2" transform="translate(0.000000, 460.000000)">
                <rect id="Rectangle" fill="#EAD7C0" x="0" y="0" width="1440" height="800"></rect>
                <g id="Group-3" transform="translate(524.004688, 133.000000)">
                    <mask id="mask-2" fill="white">
                        <use xlink:href="#path-1"></use>
                    </mask>
                    <g id="Clip-2"></g>
                    <path d="M234.304623,386.560221 C232.63505,386.47349 234.266678,385.579076 234.266678,385.579076 C234.266678,385.579076 234.190788,385.598048 234.087795,385.619731 C234.448271,385.476083 234.816878,385.343276 235.177354,385.191497 C238.123499,383.947448 241.047961,382.538069 243.866719,381.004014 C246.674637,379.4808 249.431057,377.805807 252.060092,376.02511 C254.691837,374.249834 257.266664,372.32549 259.711395,370.306283 C262.153416,368.292497 264.527678,366.135062 266.769133,363.893607 C269.005168,361.657572 271.162602,359.28331 273.184519,356.835869 C275.198306,354.393848 277.12265,351.821731 278.903347,349.184566 C280.694885,346.531138 282.369878,343.774717 283.88225,340.991193 C285.408175,338.177855 286.817554,335.253393 288.064313,332.304538 C289.324623,329.334 290.449416,326.260469 291.408878,323.170676 C292.379181,320.06191 293.200416,316.855572 293.86174,313.646524 C294.523064,310.402241 295.027188,307.082069 295.363271,303.778159 C295.544864,302.008303 295.67225,300.222186 295.756271,298.430648 C295.82403,295.392352 298.290444,294.980379 299.095416,294.928883 L359.159368,294.928883 C359.343671,294.931593 363.113761,295.031876 361.259885,298.36289 C333.419223,343.227228 287.798699,375.935669 234.304623,386.560221 L234.304623,386.560221 Z M31.7605539,298.408966 C29.8389194,295.029166 33.6550849,294.931593 33.836678,294.928883 L93.7136159,294.928883 C96.7139677,294.9858 97.1638849,297.373614 97.2289332,298.224662 C97.3129539,300.083959 97.4376297,301.937834 97.6246435,303.778159 C97.9607263,307.082069 98.4675608,310.402241 99.1288849,313.649234 C99.7874987,316.855572 100.611444,320.06191 101.579037,323.170676 C102.541209,326.260469 103.666002,329.334 104.923602,332.301828 C106.173071,335.253393 107.57974,338.177855 109.108375,340.991193 C110.618037,343.774717 112.29303,346.531138 114.087278,349.187276 C115.867975,351.821731 117.792319,354.393848 119.806106,356.835869 C121.828023,359.28331 123.985457,361.657572 126.221492,363.893607 C128.460237,366.135062 130.834499,368.292497 133.27923,370.306283 C135.723961,372.32549 138.296078,374.249834 140.927823,376.02511 C143.559568,377.805807 146.313278,379.4808 149.118485,381.004014 C151.939954,382.538069 154.864416,383.947448 157.80785,385.188786 C158.097857,385.310752 158.393285,385.413745 158.686002,385.533 C158.612823,385.516738 158.569457,385.505897 158.569457,385.505897 C158.569457,385.505897 160.355575,386.4762 158.347209,386.500593 C105.015754,375.808283 59.5442987,343.154048 31.7605539,298.408966 L31.7605539,298.408966 Z M190.535264,2.86212414 C191.643795,3.00035172 193.551878,3.62102069 192.031375,6.37202069 C192.031375,6.37202069 192.042216,6.35846897 192.042216,6.35846897 L29.6356435,287.657028 L29.6410642,287.643476 C27.9281263,290.611303 26.2775263,288.77911 25.6948022,287.947034 C11.0399677,260.691807 2.70565733,229.555366 2.70565733,196.5 C2.70565733,91.6421793 86.4309194,6.03322759 190.535264,2.86212414 L190.535264,2.86212414 Z M390.284968,196.5 C390.284968,229.571628 381.942526,260.721621 367.27685,287.98769 C366.669733,288.833317 365.043526,290.565228 363.354981,287.643476 C363.354981,287.643476 363.371244,287.686841 363.376664,287.697683 L200.842706,6.17958621 C200.463257,5.40713793 199.609499,3.08708276 202.60443,2.86754483 C306.635595,6.11182759 390.284968,91.6936759 390.284968,196.5 L390.284968,196.5 Z M299.377292,292.219143 C295.631595,292.213117 295.758981,288.592097 295.758981,288.592097 L295.753561,288.657145 C295.66683,286.917103 295.539444,285.182483 295.363271,283.458703 C295.027188,280.154793 294.523064,276.834621 293.86174,273.590338 C293.200416,270.38129 292.379181,267.177662 291.408878,264.066186 C290.446706,260.970972 289.321913,257.897441 288.067023,254.935034 C286.820264,251.98889 285.413595,249.067138 283.88225,246.245669 C282.367168,243.462145 280.694885,240.705724 278.903347,238.052297 C277.125361,235.417841 275.201016,232.845724 273.184519,230.400993 C271.170733,227.961683 269.010588,225.587421 266.769133,223.343255 C264.527678,221.10451 262.153416,218.947076 259.711395,216.93329 C257.277506,214.919503 254.699968,212.992448 252.062802,211.211752 C249.433768,209.433766 246.677347,207.758772 243.866719,206.230138 C241.04254,204.698793 238.120788,203.289414 235.177354,202.045366 C232.206816,200.787766 229.133285,199.662972 226.046202,198.70351 C222.923885,197.733207 219.717547,196.906552 216.52205,196.256069 C213.266926,195.589324 209.949464,195.08249 206.656395,194.749117 C199.942871,194.068821 193.045044,194.068821 186.33423,194.749117 C183.041161,195.08249 179.720988,195.589324 176.465864,196.256069 C173.270368,196.906552 170.06674,197.733207 166.941713,198.70351 C163.85734,199.662972 160.783809,200.787766 157.810561,202.045366 C154.867126,203.289414 151.945375,204.698793 149.118485,206.230138 C146.310568,207.758772 143.556857,209.433766 140.927823,211.211752 C138.287947,212.992448 135.713119,214.919503 133.27923,216.930579 C130.834499,218.947076 128.460237,221.10451 126.221492,223.343255 C123.980037,225.587421 121.819892,227.961683 119.806106,230.400993 C117.789609,232.845724 115.865264,235.417841 114.087278,238.052297 C112.29303,240.705724 110.620747,243.462145 109.108375,246.245669 C107.574319,249.067138 106.170361,251.98889 104.926313,254.935034 C103.668713,257.897441 102.543919,260.970972 101.579037,264.066186 C100.611444,267.177662 99.7874987,270.38129 99.1288849,273.590338 C98.4675608,276.834621 97.9607263,280.154793 97.6246435,283.458703 C97.4457608,285.233979 97.3183746,287.025517 97.2343539,288.819766 C97.0852849,292.112834 94.0659608,292.219143 93.7081953,292.219143 L34.3597746,292.219143 C30.2319194,292.272745 32.186078,288.667986 32.2158918,288.602938 L194.443581,7.62148966 C194.82303,7.03605517 196.725692,4.4259931 198.620223,7.75429655 C198.620223,7.75429655 198.614802,7.73803448 198.612092,7.73532414 L360.837071,288.716772 C361.124368,289.302207 362.39823,292.267324 358.636271,292.219143 L299.377292,292.219143 Z M289.514347,292.218583 L103.57114,292.218583 C99.8877815,292.213117 99.9474091,288.733034 99.9520751,288.613779 C100.03414,286.982152 100.156106,285.350524 100.318726,283.735159 C100.649388,280.517979 101.139961,277.287248 101.785023,274.135117 C102.424664,271.0128 103.226926,267.895903 104.167416,264.871159 C105.105195,261.859966 106.197464,258.873166 107.42254,255.989359 C108.631354,253.127234 110.000078,250.281372 111.490768,247.541214 C112.959775,244.830869 114.588692,242.147628 116.331444,239.57009 C118.060644,237.006103 119.936202,234.501745 121.895781,232.127483 C123.855361,229.753221 125.955878,227.441297 128.137706,225.259469 C130.316823,223.080352 132.626037,220.982545 135.003009,219.020255 C137.37185,217.063386 139.876209,215.190538 142.445616,213.455917 C145.001471,211.729428 147.682002,210.10051 150.41403,208.612531 C153.162319,207.121841 156.002761,205.753117 158.864885,204.541593 C161.756823,203.319228 164.746333,202.224248 167.746685,201.29189 C170.784981,200.345979 173.901878,199.546428 177.010644,198.909497 C180.173616,198.261724 183.404347,197.771152 186.607975,197.44591 C189.87123,197.115248 193.199533,196.947207 196.495313,196.947207 C199.791092,196.947207 203.116685,197.115248 206.37994,197.44591 C209.586278,197.771152 212.814299,198.261724 215.977271,198.909497 C219.088747,199.546428 222.202933,200.345979 225.24123,201.29189 C228.244292,202.224248 231.231092,203.319228 234.12574,204.541593 C236.985154,205.753117 239.828306,207.121841 242.573885,208.612531 C245.308623,210.10051 247.989154,211.729428 250.542299,213.455917 C253.111706,215.190538 255.616064,217.063386 257.984906,219.022966 C260.361878,220.982545 262.673802,223.080352 264.852919,225.259469 C267.032037,227.441297 269.135264,229.753221 271.092133,232.127483 C273.054423,234.501745 274.927271,237.006103 276.659181,239.57009 C278.401933,242.147628 280.02814,244.830869 281.499857,247.541214 C282.990547,250.281372 284.359271,253.127234 285.570795,255.989359 C286.79045,258.873166 287.88543,261.859966 288.820499,264.871159 C289.763699,267.895903 290.565961,271.0128 291.202892,274.135117 C291.847954,277.287248 292.341237,280.517979 292.669188,283.732448 C292.83994,285.407441 292.964616,287.095986 293.045926,288.787241 C292.91854,292.112834 289.874823,292.221248 289.514347,292.218583 L289.514347,292.218583 Z M225.24123,385.942262 C222.219195,386.885462 219.105009,387.687724 215.977271,388.324655 C212.82514,388.975138 209.59983,389.46571 206.37994,389.790952 C204.764575,389.956283 203.127526,390.080959 201.482347,390.162269 C200.872519,390.178531 200.262692,390.200214 199.652864,390.211055 C197.546926,390.276103 195.440988,390.276103 193.337761,390.211055 C192.725223,390.200214 192.118106,390.178531 191.508278,390.162269 C189.863099,390.080959 188.22605,389.956283 186.607975,389.790952 C183.390795,389.46571 180.162775,388.975138 177.010644,388.324655 C173.885616,387.687724 170.77143,386.885462 167.746685,385.942262 C164.751754,385.015324 161.762244,383.920345 158.864885,382.692559 C156.00005,381.483745 153.159609,380.115021 150.41403,378.621621 C147.684713,377.139062 145.004181,375.510145 142.442906,373.780945 C139.88434,372.051745 137.382692,370.178897 135.003009,368.213897 C132.626037,366.257028 130.316823,364.15651 128.137706,361.977393 C125.961299,359.800986 123.863492,357.489062 121.895781,355.109379 C119.936202,352.737828 118.063354,350.233469 116.331444,347.669483 C114.588692,345.086524 112.959775,342.405993 111.490768,339.698359 C110.002788,336.96091 108.634064,334.117759 107.41983,331.247503 C106.197464,328.358276 105.102485,325.371476 104.167416,322.365703 C103.226926,319.340959 102.424664,316.226772 101.785023,313.104455 C101.139961,309.946903 100.649388,306.718883 100.318726,303.501703 C100.150685,301.832131 100.026009,300.146297 99.9446987,298.460462 C99.9934849,295.392352 102.478871,294.980379 103.289264,294.928883 L289.522478,294.928883 C292.669188,294.98851 293.013402,297.631097 293.048637,298.354759 C292.967326,300.078538 292.84265,301.799607 292.669188,303.501703 C292.341237,306.718883 291.847954,309.946903 291.202892,313.101745 C290.565961,316.226772 289.763699,319.340959 288.820499,322.365703 C287.88814,325.371476 286.79045,328.358276 285.568085,331.250214 C284.356561,334.117759 282.987837,336.96091 281.499857,339.698359 C280.03085,342.405993 278.401933,345.086524 276.659181,347.666772 C274.924561,350.233469 273.054423,352.737828 271.092133,355.109379 C269.127133,357.489062 267.026616,359.800986 264.852919,361.977393 C262.673802,364.15651 260.361878,366.257028 257.984906,368.213897 C255.605223,370.178897 253.106285,372.051745 250.542299,373.780945 C247.986444,375.510145 245.305913,377.139062 242.573885,378.621621 C239.831016,380.115021 236.987864,381.483745 234.12303,382.692559 C231.225671,383.920345 228.238871,385.015324 225.24123,385.942262 L225.24123,385.942262 Z M392.995313,196.5 C392.995313,88.1512552 304.844057,0 196.495313,0 C88.1438573,0 -0.0046875,88.1512552 -0.0046875,196.5 C-0.0046875,303.130386 85.3847263,390.132455 191.36734,392.869903 C193.069437,392.953924 194.785085,393 196.495313,393 C198.20554,393 199.918478,392.953924 201.620575,392.869903 C307.605899,390.132455 392.995313,303.130386 392.995313,196.5 L392.995313,196.5 Z" id="Fill-1" fill="#B38A6B" mask="url(#mask-2)"></path>
                </g>
                <g id="Group-33" transform="translate(556.777975, 569.000000)">
                    <path d="M97.5752346,21.3349349 L92.4857923,8.50394178 L88.0627829,21.3349349 L97.5752346,21.3349349 Z M90.7214991,4.56696366 L89.3553118,1.56374493 C89.8516289,1.36870831 90.8162027,1.10463218 92.2490333,0.781872463 C93.6801101,0.453934786 94.5955784,0.195036619 94.9919305,0 L109.222025,35.9005458 C106.871973,36.2112236 104.925287,36.575407 103.385477,37 L99.0150803,24.5366423 L86.945631,24.5366423 L83.1469639,36.3907263 L79.2220252,36.6841442 C86.8702189,16.0723982 90.7039614,5.366096 90.7214991,4.56696366 L90.7214991,4.56696366 Z" id="Fill-1" fill="#B38A6B"></path>
                    <path d="M138.914677,37 L121.375937,36.8525896 L121.426638,25.9670366 L121.222025,0.273762094 L127.170276,0 L127.248138,22.3642573 C127.248138,28.7081673 127.307892,32.3688579 127.4274,33.3498387 C129.527848,33.4498672 131.769533,33.4972491 134.143401,33.4972491 C137.35926,33.4972491 139.383657,33.4621514 140.222025,33.3972206 L138.914677,37 Z" id="Fill-3" fill="#B38A6B"></path>
                    <path d="M150.222025,25.2744147 L150.222025,0.343383427 C151.624952,0.343383427 153.618776,0.228341263 156.203497,0 L156.10018,9.60079144 C156.10018,17.713007 156.154557,22.9927451 156.266937,25.448721 C156.377503,27.8994677 157.153282,29.7383992 158.590648,30.9637726 C160.028013,32.1891459 162.054463,32.800961 164.673623,32.800961 C167.118776,32.800961 169.045535,32.1438263 170.446649,30.8278136 C171.081048,28.6716446 171.398247,25.4556932 171.398247,21.1747303 L171.191614,0.296320724 L177.071582,0.0470627032 L176.915701,19.1022283 C176.915701,28.6786169 177.017205,34.4045791 177.222025,36.2801149 L171.244179,36.4788241 L171.345683,32.9996702 L171.345683,32.2832713 C169.19054,33.9792717 167.463164,35.1872144 166.161741,35.9140717 C164.860317,36.6356998 163.227194,37 161.260559,37 C157.751429,37 155.034391,35.9611344 153.111257,33.8868893 C151.184498,31.8143873 150.222025,28.9435624 150.222025,25.2744147" id="Fill-5" fill="#B38A6B"></path>
                    <path d="M208.914677,37 L191.375937,36.8525896 L191.426638,25.9670366 L191.222025,0.273762094 L197.170276,0 L197.248138,22.3642573 C197.248138,28.7081673 197.307892,32.3688579 197.4274,33.3498387 C199.527848,33.4498672 201.769533,33.4972491 204.143401,33.4972491 C207.35926,33.4972491 209.383657,33.4621514 210.222025,33.3972206 L208.914677,37 Z" id="Fill-7" fill="#B38A6B"></path>
                    <path d="M235.575235,21.3349349 L230.485792,8.50394178 L226.062783,21.3349349 L235.575235,21.3349349 Z M228.721499,4.56696366 L227.355312,1.56374493 C227.851629,1.36870831 228.816203,1.10463218 230.249033,0.781872463 C231.68011,0.453934786 232.595578,0.195036619 232.991931,0 L247.222025,35.9005458 C244.871973,36.2112236 242.925287,36.575407 241.385477,37 L237.01508,24.5366423 L224.945631,24.5366423 L221.146964,36.3907263 L217.222025,36.6841442 C224.870219,16.0723982 228.703961,5.366096 228.721499,4.56696366 L228.721499,4.56696366 Z" id="Fill-9" fill="#B38A6B"></path>
                    <g id="Group-13" transform="translate(0.222025, 59.000000)">
                        <mask id="mask-4" fill="white">
                            <use xlink:href="#path-3"></use>
                        </mask>
                        <g id="Clip-12"></g>
                        <path d="M27.926989,31.3941136 L28.5996569,32.4222955 C23.7958922,36.80625 19.7070573,39.0008864 16.3313913,39.0008864 C11.7442186,39.0008864 7.87549753,37.3185682 4.72522808,33.9521591 C1.57495863,30.5910682 0.000704364326,26.3382955 0.000704364326,21.2009318 C0.000704364326,17.4374318 0.98505351,13.97175 2.9537518,10.8109773 C4.92421101,7.64665909 7.48985806,5.12938636 10.6471712,3.25561364 C13.8044843,1.37829545 16.5832015,0.444068182 18.9762793,0.444068182 C21.9680668,0.444068182 24.9175924,1.34815909 27.8266171,3.15456818 L23.9878315,7.59702273 C21.5929928,6.12211364 18.8001882,5.38820455 15.6094178,5.38820455 C13.0666626,5.38820455 11.0592243,5.77997727 9.58710285,6.56884091 C8.11674231,7.35415909 6.92284478,8.80602273 6.01069298,10.9208864 C5.09501935,13.0392955 4.63718254,15.4767955 4.63718254,18.2404773 C4.63718254,22.82475 6.08465123,26.5917955 8.97606679,29.5345227 C11.8692433,32.4807955 15.526655,33.9521591 19.9483021,33.9521591 C23.1390725,33.9521591 25.7998087,33.10125 27.926989,31.3941136" id="Fill-11" fill="#B38A6B" mask="url(#mask-4)"></path>
                    </g>
                    <path d="M57.1851865,93.5035497 C58.4026314,93.5035497 59.5246596,93.3559 60.5512713,93.0640342 C61.5761161,92.7721683 62.5037772,92.3463876 63.3289539,91.7901257 C64.1541306,91.2304301 64.8768228,89.9994432 65.4917297,88.095448 C66.1101705,86.189736 66.4193908,84.1449585 66.4193908,81.9542481 C66.4193908,76.9152708 65.1754414,72.9149923 62.6893095,69.9568466 C60.2049445,66.9987008 56.8529955,65.5204863 52.6334624,65.5204863 C51.3153,65.5204863 49.9582643,65.6921721 48.565889,66.030393 C47.1735138,66.3720477 46.1133296,67.0570739 45.3888704,68.0854717 C44.6626442,69.1155863 44.0300676,70.4598859 43.4876067,72.1200872 C42.9451458,73.7837223 42.6730319,75.6842838 42.6730319,77.8234885 C42.6730319,82.4572874 44.1254842,86.2309406 47.0286219,89.1375806 C49.9317597,92.0476544 53.3172812,93.5035497 57.1851865,93.5035497 M38.2220252,81.1765115 C38.2220252,74.7245603 40.3088211,69.7525405 44.4877138,66.2518677 C48.6666065,62.7511948 52.5751522,61 56.2098171,61 C60.5813099,61 64.1753343,62.6104125 66.9936573,65.8363881 C69.8119803,69.0623637 71.2220252,73.2600807 71.2220252,78.4312561 C71.2220252,84.2325182 69.2041413,88.9435757 65.1683735,92.5678623 C61.1308387,96.1887151 57.1374782,98 53.1812242,98 C49.4299391,98 45.9984763,96.5956104 42.8868357,93.7816807 C39.7751951,90.9711846 38.2220252,86.7700339 38.2220252,81.1765115" id="Fill-14" fill="#B38A6B"></path>
                    <path d="M101.914677,98 L84.3759374,97.8525896 L84.4266378,86.9670366 L84.2220252,61.2737621 L90.1702765,61 L90.2481379,83.3642573 C90.2481379,89.7081673 90.307892,93.3688579 90.4274003,94.3498387 C92.5278482,94.4498672 94.7695331,94.4972491 97.1434014,94.4972491 C100.35926,94.4972491 102.383657,94.4621514 103.222025,94.3972206 L101.914677,98 Z" id="Fill-16" fill="#B38A6B"></path>
                    <path d="M131.914677,98 L114.375937,97.8525896 L114.426638,86.9670366 L114.222025,61.2737621 L120.170276,61 L120.248138,83.3642573 C120.248138,89.7081673 120.307892,93.3688579 120.4274,94.3498387 C122.527848,94.4498672 124.769533,94.4972491 127.143401,94.4972491 C130.35926,94.4972491 132.383657,94.4621514 133.222025,94.3972206 L131.914677,98 Z" id="Fill-18" fill="#B38A6B"></path>
                    <path d="M164.222025,93.1909143 L162.519085,97 L145.222025,96.8502746 L145.473514,77.8690144 L145.372919,60 L163.916646,60 L162.03407,63.5577609 L151.376322,63.3563445 L151.148186,76.2291647 L163.661564,76.2291647 L161.88138,79.7869255 C160.846683,79.7174102 159.107815,79.6871086 156.666575,79.6871086 L151.148186,79.7352346 C151.114055,80.1077657 151.096092,80.7458811 151.096092,81.6531458 L151.376322,93.2390404 C153.445718,93.3762887 155.750436,93.4422391 158.294068,93.4422391 C159.939525,93.4422391 161.915511,93.3584642 164.222025,93.1909143" id="Fill-20" fill="#B38A6B"></path>
                    <g id="Group-24" transform="translate(174.222025, 59.000000)">
                        <mask id="mask-6" fill="white">
                            <use xlink:href="#path-5"></use>
                        </mask>
                        <g id="Clip-23"></g>
                        <path d="M28.6201875,31.3941136 L29.2966458,32.4222955 C24.4658125,36.80625 20.3539375,39.0008864 16.95925,39.0008864 C12.3462292,39.0008864 8.45570833,37.3185682 5.2876875,33.9521591 C2.11966667,30.5910682 0.536541667,26.3382955 0.536541667,21.2009318 C0.536541667,17.4374318 1.5264375,13.97175 3.50622917,10.8109773 C5.48779167,7.64665909 8.06789583,5.12938636 11.243,3.25561364 C14.4181042,1.37829545 17.2124792,0.444068182 19.6190417,0.444068182 C22.6276875,0.444068182 25.5938333,1.34815909 28.51925,3.15456818 L24.6588333,7.59702273 C22.2505,6.12211364 19.4419583,5.38820455 16.2332083,5.38820455 C13.676125,5.38820455 11.657375,5.77997727 10.1769583,6.56884091 C8.6983125,7.35415909 7.4976875,8.80602273 6.58039583,10.9208864 C5.6595625,13.0392955 5.19914583,15.4767955 5.19914583,18.2404773 C5.19914583,22.82475 6.65477083,26.5917955 9.56247917,29.5345227 C12.4719583,32.4807955 16.1499792,33.9521591 20.5965417,33.9521591 C23.8052917,33.9521591 26.4810208,33.10125 28.6201875,31.3941136" id="Fill-22" fill="#B38A6B" mask="url(#mask-6)"></path>
                    </g>
                    <path d="M212.222025,63.4326794 L214.663736,60 L233.999788,60.1487081 L238.222025,60.047799 L235.550337,63.4840191 L227.7922,63.3317703 C227.756266,63.8858852 227.740096,64.8188517 227.740096,66.1395215 L227.943123,96.6990431 C226.230871,96.6990431 224.204196,96.7999522 221.8631,97 L222.066127,63.4326794 L212.222025,63.4326794 Z" id="Fill-25" fill="#B38A6B"></path>
                    <path d="M248.449918,60 L254.172174,60 L254.122322,76.2407895 L254.222025,96.7996934 C253.634488,96.8475543 252.70155,96.8652805 251.423212,96.8475543 C250.146654,96.829828 249.080185,96.8830068 248.222025,97 L248.551402,76.2407895 L248.449918,60 Z" id="Fill-27" fill="#B38A6B"></path>
                    <path d="M282.3771,91.9774361 L292.577597,61.6668401 C293.68299,61.6020814 294.898391,61.5023179 296.222025,61.3692999 L287.804708,84.9397351 C285.425361,91.5643803 284.043175,95.7859508 283.659924,97.6044465 C282.802934,97.5694418 280.987817,97.7024598 278.205702,98 C277.40194,94.5625355 275.631181,88.7464995 272.891649,80.5536424 C270.153892,72.3555345 267.92891,66.1106906 266.222025,61.8173605 C267.09321,61.7823557 269.153182,61.5093188 272.403714,61 C274.715638,68.9303217 278.038917,79.2532167 282.3771,91.9774361" id="Fill-29" fill="#B38A6B"></path>
                    <path d="M326.222025,93.1909143 L324.519085,97 L307.222025,96.8502746 L307.473514,77.8690144 L307.372919,60 L325.916646,60 L324.03407,63.5577609 L313.376322,63.3563445 L313.148186,76.2291647 L325.661564,76.2291647 L323.88138,79.7869255 C322.846683,79.7174102 321.107815,79.6871086 318.666575,79.6871086 L313.148186,79.7352346 C313.114055,80.1077657 313.096092,80.7458811 313.096092,81.6531458 L313.376322,93.2390404 C315.445718,93.3762887 317.750436,93.4422391 320.294068,93.4422391 C321.939525,93.4422391 323.915511,93.3584642 326.222025,93.1909143" id="Fill-31" fill="#B38A6B"></path>
                </g>
            </g>
        </g>
    </g>
</svg>