<?xml version="1.0" encoding="UTF-8"?>
<svg width="1058px" height="1724px" viewBox="0 0 1058 1724" version="1.1" xmlns="http://www.w3.org/2000/svg" xmlns:xlink="http://www.w3.org/1999/xlink">
    <!-- Generator: Sketch 63.1 (92452) - https://sketch.com -->
    <title>Group</title>
    <desc>Created with Sketch.</desc>
    <defs>
        <polygon id="path-1" points="0.873918499 0 933.873918 0 933.873918 315 0.873918499 315"></polygon>
    </defs>
    <g id="Page-1" stroke="none" stroke-width="1" fill="none" fill-rule="evenodd">
        <g id="Genome-Copy-4" transform="translate(-190.000000, -1603.000000)">
            <g id="Group" transform="translate(190.000000, 1603.000000)">
                <path d="M220.149188,281.155894 C225.756987,289.56654 233.074044,296.475285 242.091385,301.882129 C251.108726,307.288973 263.432425,309.992395 279.062483,309.992395 L309.721443,309.992395 C311.722305,309.992395 312.727223,308.997106 312.727223,306.988593 L312.727223,252.920152 C312.727223,250.920606 311.722305,249.91635 309.721443,249.91635 L300.704102,249.91635 C294.288779,249.91635 289.075769,248.217184 285.074044,244.809886 C281.063346,241.411554 279.062483,236.69962 279.062483,230.692015 L279.062483,114.144487 C279.062483,76.5028091 266.936178,48.0608365 242.692541,28.8365019 C218.439931,9.6121673 185.479531,0 143.802367,0 C126.162474,0 109.330104,2.2057772 93.3052576,6.60836502 C77.2714383,11.0199194 63.2474542,17.6282844 51.2243328,26.4334601 C39.2012114,35.2476023 29.5827143,46.2585551 22.3688414,59.4752852 C15.1549686,72.6920152 11.5480322,88.1145224 11.5480322,105.73384 C11.5480322,107.742353 12.5439773,108.737643 14.5538125,108.737643 L80.0798241,108.737643 C82.0806868,108.737643 83.0856044,107.742353 83.0856044,105.73384 C83.4803935,100.533227 84.7858891,95.5209125 86.9931189,90.7148289 C89.1913762,85.9087452 92.600918,81.7034221 97.2127721,78.0988593 C101.815654,74.4942966 107.827214,71.5936099 115.247454,69.3878327 C122.658722,67.1910221 132.174035,66.0836502 143.802367,66.0836502 C158.624902,66.0836502 170.253234,67.6886669 178.669419,70.8897338 C187.085604,74.0997673 193.397743,78.0047103 197.605836,82.6045627 C201.813928,87.2133818 204.415947,91.9163498 205.420865,96.7224335 C206.41681,101.528517 206.923755,105.536576 206.923755,108.737643 C206.923755,111.947676 205.420865,114.951478 202.415084,117.749049 C199.409304,120.555587 194.900633,121.954373 188.889073,121.954373 L132.380402,121.954373 C110.335022,121.954373 91.0980279,124.563646 74.6694195,129.764259 C58.2318386,134.973838 44.5084325,142.079848 33.4902287,151.091255 C22.4630525,160.102662 14.2532345,170.521821 8.84282987,182.330798 C3.43242525,194.148743 0.727222936,206.464332 0.727222936,219.277567 C0.727222936,232.897792 3.13184721,245.616878 7.94109577,257.425856 C12.7503443,269.2438 19.9642172,279.456728 29.5827143,288.064639 C39.2012114,296.681516 51.5249108,303.487146 66.5538125,308.490494 C81.5827143,313.493843 99.3168183,316 119.756125,316 C143.802367,316 163.640518,312.189206 179.270576,304.585551 C194.900633,296.981897 206.717388,289.172011 214.738784,281.155894 C216.739646,279.156348 218.543115,279.156348 220.149188,281.155894 L220.149188,281.155894 Z M96.7630974,246.99115 C90.7541288,244.988245 85.9469539,242.477876 82.3415727,239.469027 C78.7361915,236.460177 76.2294651,233.150442 74.8303619,229.539823 C73.4222902,225.929204 72.7272229,222.525162 72.7272229,219.309735 C72.7272229,215.303923 73.4222902,211.091533 74.8303619,206.672566 C76.2294651,202.262581 79.2339494,198.247788 83.8438149,194.637168 C88.4447117,191.026549 94.8572678,188.017699 103.072514,185.610619 C111.278792,183.20354 122.000766,182 135.220496,182 L203.722739,182 C205.722739,182 206.727223,183.005944 206.727223,185.00885 C206.727223,192.634262 205.121842,200.259675 201.920048,207.876106 C198.709286,215.501519 193.601662,222.421873 186.597178,228.637168 C179.583725,234.861445 170.570272,239.976489 159.556819,243.982301 C148.534398,247.997094 135.220496,250 119.597178,250 C110.377447,250 102.772066,249.003038 96.7630974,246.99115 L96.7630974,246.99115 Z M574.678043,287.764259 L580.682141,306.988593 C581.4797,308.997106 583.478079,309.992395 586.686239,309.992395 L643.725174,309.992395 C645.723553,309.992395 646.727223,308.997106 646.727223,306.988593 L646.727223,9.01140684 C646.727223,7.01186085 645.723553,6.00760456 643.725174,6.00760456 L584.88501,6.00760456 C582.877669,6.00760456 581.4797,7.01186085 580.682141,9.01140684 L574.678043,27.0342205 C574.274782,28.2357414 573.571317,29.1368821 572.576608,29.7376426 C571.572938,30.338403 570.475174,30.0380228 569.274354,28.8365019 C563.270256,22.8288973 553.560643,16.5209125 540.154477,9.91254753 C526.73935,3.30418251 510.43419,0 491.221075,0 C471.20144,0 452.88894,3.81079394 436.283575,11.4144487 C419.669249,19.02707 405.156358,29.8407582 392.753862,43.8555133 C380.342405,57.879235 370.735848,74.5974122 363.93419,94.0190114 C357.123571,113.449577 353.727223,134.776573 353.727223,158 C353.727223,181.635889 356.926422,203.057034 363.33378,222.281369 C369.732178,241.505703 378.841381,258.129732 390.652428,272.144487 C402.454514,286.168208 416.86435,296.981897 433.881936,304.585551 C450.890561,312.189206 470.00062,316 491.221075,316 C506.428471,316 521.241567,313.090347 535.651403,307.288973 C550.061239,301.4876 560.868616,294.973384 568.073534,287.764259 C570.869473,284.966687 573.073963,284.966687 574.678043,287.764259 L574.678043,287.764259 Z M445.253433,91.5555556 C458.264928,74.5215101 477.593858,66 503.231255,66 C527.263513,66 545.184583,73.8169935 557.003433,89.4509804 C568.813315,105.084967 574.727223,127.934641 574.727223,158 C574.727223,185.265242 568.813315,207.410399 557.003433,224.444444 C545.184583,241.487465 527.263513,250 503.231255,250 C477.593858,250 458.264928,241.487465 445.253433,224.444444 C432.23297,207.410399 425.727223,185.265242 425.727223,158 C425.727223,130.743732 432.23297,108.598576 445.253433,91.5555556 L445.253433,91.5555556 Z M727.727223,307.361167 C727.727223,308.167568 728.027877,308.86197 728.629184,309.462291 C729.230491,310.062612 730.132452,310.156692 731.335066,309.762451 L927.962517,244.927778 C930.367746,244.130336 931.57036,244.927778 931.57036,247.329062 L931.57036,306.760846 C931.57036,308.76789 932.566556,309.762451 934.576896,309.762451 L1000.72069,309.762451 C1002.72205,309.762451 1003.72722,308.76789 1003.72722,306.760846 L1003.72722,9.00160525 C1003.72722,7.00352176 1002.72205,6 1000.72069,6 L730.733759,6 C728.723418,6 727.727223,7.00352176 727.727223,9.00160525 L727.727223,69.0337102 C727.727223,71.0407538 728.723418,72.0353155 730.733759,72.0353155 L929.165131,72.0353155 C930.367746,72.0353155 931.063288,72.7386767 931.269707,74.1364392 C931.467151,75.5431616 930.969053,76.4436432 929.766439,76.8378839 L729.531145,142.272878 C728.32853,143.07928 727.727223,144.073841 727.727223,145.274484 L727.727223,307.361167 Z M793.727223,197.997782 C793.727223,195.988247 794.527718,194.780724 796.137703,194.375212 L928.714122,150.300614 C930.719858,149.498602 931.727223,150.300614 931.727223,152.71566 L931.727223,166.602178 C931.727223,168.620724 930.521983,170.026497 928.111502,170.828509 L797.945564,213.695584 C795.130338,214.506607 793.727223,213.695584 793.727223,211.280538 L793.727223,197.997782 Z" id="Fill-1" fill="#000000"></path>
                <g id="Group-3" transform="translate(0.000000, 403.000000)">
                    <mask id="mask-2" fill="white">
                        <use xlink:href="#path-1"></use>
                    </mask>
                    <g id="Clip-2"></g>
                    <path d="M84.6941643,11.378327 C66.5226316,18.9668577 51.287339,29.6435361 38.9793254,43.4173004 C26.6713118,57.1910646 17.2442785,73.7624851 10.6967319,93.1226236 C4.1476918,112.4917 0.873918499,133.947846 0.873918499,157.5 C0.873918499,181.061092 4.1476918,202.414449 10.6967319,221.577947 C17.2442785,240.741445 26.6713118,257.312865 38.9793254,271.28327 C51.287339,285.262613 66.5226316,296.04208 84.6941643,303.621673 C102.856736,311.201266 123.74795,315 147.3693,315 C185.39107,315 216.80854,306.01711 241.630672,288.051331 C266.443842,270.085551 282.054006,243.94132 288.461162,209.60076 C288.855449,207.607542 287.860771,206.606464 285.459208,206.606464 L217.615035,206.606464 C215.607758,206.606464 214.209833,207.607542 213.412299,209.60076 C208.205924,222.775665 200.898181,233.059063 191.498031,240.442015 C182.08892,247.833906 167.379343,251.520913 147.3693,251.520913 C134.554986,251.520913 123.550807,249.125475 114.3478,244.334601 C105.135832,239.543726 97.4338022,232.956274 91.2327498,224.572243 C85.0227364,216.188213 80.4257135,206.213183 77.423759,194.629278 C74.4218045,183.05431 72.9208272,170.674905 72.9208272,157.5 C72.9208272,144.325095 74.4218045,131.954628 77.423759,120.370722 C80.4257135,108.795755 85.0227364,98.8117871 91.2327498,90.4277567 C97.4338022,82.0437262 105.135832,75.4562738 114.3478,70.6653992 C123.550807,65.8745247 134.554986,63.4790875 147.3693,63.4790875 C164.977779,63.4790875 178.889822,67.1750326 189.096467,74.5579848 C199.303113,81.9498751 207.005142,92.2243346 212.211517,105.39924 C213.009052,107.401396 214.406977,108.393536 216.414254,108.393536 L284.258426,108.393536 C286.65999,108.393536 287.654667,107.401396 287.260381,105.39924 C282.054006,73.0608365 267.044233,47.4126752 242.231063,28.4458175 C217.408931,9.48789796 185.794317,0 147.3693,0 C123.74795,0 102.856736,3.79873446 84.6941643,11.378327 L84.6941643,11.378327 Z M586.850962,309.011407 C588.849278,309.011407 589.852917,308.019267 589.852917,306.01711 L589.852917,248.526616 C589.852917,246.533398 588.849278,245.532319 586.850962,245.532319 L506.998972,245.532319 C481.782553,245.532319 463.170435,237.550508 451.162617,221.577947 C439.154799,205.614324 433.15089,184.252029 433.15089,157.5 C433.15089,131.15019 439.154799,109.890684 451.162617,93.7214829 C463.170435,77.5522814 481.782553,69.4676806 506.998972,69.4676806 L586.850962,69.4676806 C588.849278,69.4676806 589.852917,68.4755405 589.852917,66.473384 L589.852917,8.98288973 C589.852917,6.98967141 588.849278,5.98859316 586.850962,5.98859316 L506.998972,5.98859316 C460.168481,6.3908121 424.145027,19.967936 398.928608,46.7110266 C373.71219,73.4630554 361.103981,110.395693 361.103981,157.5 C361.103981,204.613246 373.71219,241.545883 398.928608,268.288973 C424.145027,295.041002 460.168481,308.618126 506.998972,309.011407 L586.850962,309.011407 Z M763.362901,245.532319 C761.355624,245.532319 760.360947,244.540179 760.360947,242.538023 L760.360947,72.4619772 C760.360947,70.4687589 761.355624,69.4676806 763.362901,69.4676806 L930.871964,69.4676806 C932.87028,69.4676806 933.873918,68.4755405 933.873918,66.473384 L933.873918,8.98288973 C933.873918,6.98967141 932.87028,5.98859316 930.871964,5.98859316 L691.315993,5.98859316 C689.308716,5.98859316 688.314038,6.98967141 688.314038,8.98288973 L688.314038,306.01711 C688.314038,308.019267 689.308716,309.011407 691.315993,309.011407 L930.871964,309.011407 C932.87028,309.011407 933.873918,308.019267 933.873918,306.01711 L933.873918,248.526616 C933.873918,246.533398 932.87028,245.532319 930.871964,245.532319 L763.362901,245.532319 Z" id="Fill-1" fill="#000000" mask="url(#mask-2)"></path>
                </g>
                <path d="M12.7926829,1026.30663 C19.9878049,1045.53315 29.7781823,1062.15907 42.1727642,1076.17541 C54.558397,1090.20073 69.0515562,1101.01565 85.6432927,1108.62017 C102.22608,1116.22468 119.914088,1120.03591 138.707317,1120.03591 C149.097288,1120.03591 158.793699,1118.92841 167.787602,1116.73135 C176.781504,1114.52533 184.773101,1111.92472 191.771341,1108.92058 C198.760633,1105.91644 204.662602,1102.71501 209.45935,1099.30732 C214.256098,1095.9086 217.853659,1092.99862 220.252033,1090.5953 C221.048507,1089.79719 222.050813,1089.5999 223.25,1089.99448 C224.449187,1090.39802 225.04878,1091.19613 225.04878,1092.39779 L225.04878,1094.8011 L225.04878,1105.01519 C224.646068,1113.83034 223.147085,1122.3361 220.551829,1130.55041 C217.947625,1138.75576 213.75047,1145.96571 207.960366,1152.18025 C202.161312,1158.38582 194.666394,1163.38974 185.47561,1167.20097 C176.275877,1171.00323 164.686719,1172.90884 150.699187,1172.90884 C139.10108,1172.90884 129.413618,1171.60406 121.618902,1169.00345 C113.824187,1166.39388 107.42554,1163.29558 102.431911,1159.69061 C97.429332,1156.08564 93.7378049,1152.37754 91.3394309,1148.57528 C88.9410569,1144.76405 87.5360393,1141.86303 87.1422764,1139.86326 C86.3368523,1137.85452 85.1376653,1136.85912 83.5447154,1136.85912 L18.7886179,1136.85912 C16.7840068,1136.85912 15.7906504,1137.85452 15.7906504,1139.86326 C15.7906504,1153.08149 19.1823808,1165.6989 25.9837398,1177.71547 C32.7761497,1189.73204 42.2667304,1200.24655 54.4644309,1209.25898 C66.6531823,1218.27141 80.9405109,1225.48135 97.3353659,1230.88881 C113.721272,1236.29627 131.512195,1239 150.699187,1239 C171.479129,1239 190.769036,1235.7896 208.559959,1229.38674 C226.341934,1222.97491 241.837398,1213.96248 255.028455,1202.34945 C268.219512,1190.72745 278.506568,1176.7111 285.90752,1160.29144 C293.299524,1143.86281 297,1125.44337 297,1105.01519 L297,813.012431 C297,811.012658 295.997694,810.008287 294.002033,810.008287 L237.04065,810.008287 C233.836852,810.008287 231.84119,811.209945 231.044715,813.61326 L225.04878,832.839779 C223.849593,834.84852 222.247694,834.84852 220.252033,832.839779 C211.455012,824.428177 200.062735,817.518646 186.075203,812.111188 C172.078722,806.703729 156.29241,804 138.707317,804 C119.914088,804 102.22608,807.811227 85.6432927,815.415746 C69.0515562,823.029232 54.558397,833.844149 42.1727642,847.860497 C29.7781823,861.885813 19.9878049,878.60589 12.7926829,898.029696 C5.59756098,917.46247 2,938.79189 2,962.017956 C2,985.656531 5.59756098,1007.08011 12.7926829,1026.30663 L12.7926829,1026.30663 Z M93.1746032,895.555556 C105.954691,878.52151 125.129294,870 150.698413,870 C175.865079,870 194.534382,878.52151 206.724206,895.555556 C218.905088,912.598576 225,934.743732 225,962 C225,992.065359 218.905088,1014.91503 206.724206,1030.54902 C194.534382,1046.18301 175.865079,1054 150.698413,1054 C125.129294,1054 105.954691,1045.48746 93.1746032,1028.44444 C80.3855721,1011.4104 74,989.265242 74,962 C74,934.743732 80.3855721,912.598576 93.1746032,895.555556 L93.1746032,895.555556 Z M617.9,1091.5021 C619.297015,1092.10294 620,1093.0042 620,1094.20588 L620,1163.90336 C620,1165.90317 618.997015,1166.90756 617,1166.90756 L446,1166.90756 C443.99403,1166.90756 443,1167.90299 443,1169.91176 L443,1229.9958 C443,1231.99561 443.99403,1233 446,1233 L689,1233 C690.997015,1233 692,1231.99561 692,1229.9958 L692,813.012605 C692,811.012793 690.997015,810.008403 689,810.008403 L631.4,810.008403 C628.597015,810.008403 626.99403,811.012793 626.6,813.012605 L621.2,830.436975 C620,834.042017 618.2,835.046407 615.8,833.441176 C603.397015,821.42437 589.49403,813.519284 574.1,809.707983 C558.697015,805.90565 542.6,804 525.8,804 C504.2,804 483.8,808.111721 464.6,816.317227 C445.4,824.531701 428.6,835.844538 414.2,850.264706 C399.8,864.684874 388.49403,881.508403 380.3,900.735294 C372.097015,919.962185 368,940.390756 368,962.021008 C368,983.651261 372.097015,1004.07983 380.3,1023.30672 C388.49403,1042.53361 399.8,1059.35714 414.2,1073.77731 C428.6,1088.19748 445.4,1099.51928 464.6,1107.72479 C483.8,1115.9303 504.2,1120.04202 525.8,1120.04202 C542.197015,1120.04202 557.39403,1118.13637 571.4,1114.33403 C585.397015,1110.5317 599.797015,1103.0212 614.6,1091.80252 C615.397015,1091.00439 616.49403,1090.90126 617.9,1091.5021 L617.9,1091.5021 Z M445.9,928.1 C450.49403,917.50597 456.7,908.3 464.5,900.5 C472.3,892.7 481.497015,886.502985 492.1,881.9 C502.69403,877.30597 514,875 526,875 C538,875 549.297015,877.30597 559.9,881.9 C570.49403,886.502985 579.7,892.7 587.5,900.5 C595.3,908.3 601.497015,917.50597 606.1,928.1 C610.69403,938.702985 613,950 613,962 C613,974 610.69403,985.30597 606.1,995.9 C601.497015,1006.50299 595.3,1015.7 587.5,1023.5 C579.7,1031.3 570.49403,1037.50597 559.9,1042.1 C549.297015,1046.70299 538,1049 526,1049 C514,1049 502.69403,1046.70299 492.1,1042.1 C481.497015,1037.50597 472.3,1031.3 464.5,1023.5 C456.7,1015.7 450.49403,1006.50299 445.9,995.9 C441.297015,985.30597 439,974 439,962 C439,950 441.297015,938.702985 445.9,928.1 L445.9,928.1 Z M1058,813.012431 C1058,811.012658 1056.99565,810.008287 1055.00639,810.008287 L998.041088,810.008287 C994.839732,810.008287 992.840006,811.209945 992.041909,813.61326 L986.053191,832.839779 C984.851562,834.84852 983.2464,834.84852 981.255641,832.839779 C972.460133,824.428177 961.062589,817.518646 947.074966,812.111188 C933.087343,806.703729 917.297276,804 899.704765,804 C880.910625,804 863.223957,807.811227 846.635793,815.415746 C830.047628,823.029232 815.562316,833.844149 803.170887,847.860497 C790.777964,861.885813 780.978108,878.60589 773.786267,898.029696 C766.595921,917.46247 763,938.79189 763,962.017956 C763,980.849901 765.300134,998.368094 769.909369,1014.59047 C774.509636,1030.81285 780.921315,1045.43899 789.135438,1058.45097 C797.340593,1071.47191 807.159878,1082.58724 818.575356,1091.79696 C829.990835,1101.01565 842.504818,1107.82205 856.126273,1112.22514 C857.722467,1113.03222 858.323282,1114.22491 857.928717,1115.83011 C855.121926,1123.83817 853.723014,1132.05249 853.723014,1140.46409 C853.723014,1153.68232 856.117306,1166.29972 860.904394,1178.3163 C865.692976,1190.33287 872.582915,1200.84738 881.577201,1209.85981 C890.561024,1218.87224 901.441449,1225.97906 914.227442,1231.18923 C927.004468,1236.39043 941.583939,1239 957.955391,1239 C971.530514,1239 984.410666,1236.39043 996.595845,1231.18923 C1008.78102,1225.97906 1019.36104,1218.9664 1028.34486,1210.16022 C1037.32869,1201.34508 1044.51903,1190.9337 1049.90843,1178.91713 C1055.29633,1166.90055 1058,1154.07689 1058,1140.46409 L1058,813.012431 Z M854.250996,895.528053 C867.082,878.512339 886.332996,870 912.003984,870 C937.270916,870 955.920319,878.512339 967.952191,895.528053 C979.984064,912.552731 986,934.674055 986,961.90099 L986,970.910891 L986,971.511551 C985.595945,972.712871 984.796813,973.914191 983.593625,975.115512 L912.605578,1046.59406 C908.591961,1050.19802 903.177618,1052 896.36255,1052 C888.335315,1052 880.721116,1050.00079 873.501992,1045.9934 C866.282869,1041.99498 859.759618,1036.08251 853.950199,1028.27393 C848.131801,1020.46535 843.51659,1011.06098 840.113546,1000.0429 C836.701522,989.033791 835,976.316832 835,961.90099 C835,934.674055 841.411013,912.552731 854.250996,895.528053 L854.250996,895.528053 Z M928.08209,1125.98245 C929.468657,1120.19032 934.728358,1112.71328 943.859701,1103.52452 L981.359701,1065.79519 C982.241791,1065 983.234328,1064.80302 984.341791,1065.19632 C985.447761,1065.59855 986,1066.39407 986,1067.59183 L986,1139.45721 C986,1147.84151 983,1155.02805 977,1161.01683 C971,1167.00561 963.997015,1170 956,1170 C947.99403,1170 941,1166.90282 935,1160.71739 C929,1154.52302 926,1147.43928 926,1139.45721 C926,1136.25724 926.69403,1131.76565 928.08209,1125.98245 L928.08209,1125.98245 Z" id="Fill-1" fill="#000000"></path>
                <path d="M53.1323301,1483.15361 C55.1355086,1483.15361 56.1415894,1484.15762 56.1415894,1486.15668 L56.1415894,1639.31336 C56.1415894,1669.34409 63.1572057,1690.96621 77.2064042,1704.17972 C91.2466198,1717.39324 114.11699,1724 145.817515,1724 L192.76196,1724 C194.765138,1724 195.771219,1723.00495 195.771219,1720.99693 L195.771219,1660.93548 C195.771219,1658.93642 194.765138,1657.93241 192.76196,1657.93241 L150.030478,1657.93241 C144.01196,1657.93241 138.896219,1656.23366 134.683256,1652.82719 C130.470293,1649.42968 128.363812,1644.71889 128.363812,1638.71275 L128.363812,1486.15668 C128.363812,1484.15762 129.360909,1483.15361 131.373071,1483.15361 L192.76196,1483.15361 C194.765138,1483.15361 195.771219,1482.15856 195.771219,1480.15054 L195.771219,1423.09217 C195.771219,1421.09311 194.765138,1420.08909 192.76196,1420.08909 L131.373071,1420.08909 C129.360909,1420.08909 128.363812,1419.09405 128.363812,1417.08602 L128.363812,1336.00307 C128.363812,1334.00401 127.357731,1333 125.354552,1333 L59.1508486,1333 C57.1386872,1333 56.1415894,1334.00401 56.1415894,1336.00307 L56.1415894,1417.08602 C56.1415894,1419.09405 55.1355086,1420.08909 53.1323301,1420.08909 L3.78047824,1420.08909 C1.77729969,1420.08909 0.771218981,1421.09311 0.771218981,1423.09217 L0.771218981,1480.15054 C0.771218981,1482.15856 1.77729969,1483.15361 3.78047824,1483.15361 L53.1323301,1483.15361 Z M318.13233,1483.15361 C320.135509,1483.15361 321.141589,1484.15762 321.141589,1486.15668 L321.141589,1720.99693 C321.141589,1723.00495 322.138687,1724 324.150849,1724 L457.76196,1724 C459.765138,1724 460.771219,1723.00495 460.771219,1720.99693 L460.771219,1660.93548 C460.771219,1658.93642 459.765138,1657.93241 457.76196,1657.93241 L396.373071,1657.93241 C394.360909,1657.93241 393.363812,1656.93736 393.363812,1654.92934 L393.363812,1486.15668 C393.363812,1484.15762 394.360909,1483.15361 396.373071,1483.15361 L457.76196,1483.15361 C459.765138,1483.15361 460.771219,1482.15856 460.771219,1480.15054 L460.771219,1423.09217 C460.771219,1421.09311 459.765138,1420.08909 457.76196,1420.08909 L396.373071,1420.08909 C394.360909,1420.08909 393.363812,1419.09405 393.363812,1417.08602 L393.363812,1336.00307 C393.363812,1334.00401 392.357731,1333 390.354552,1333 L324.150849,1333 C322.138687,1333 321.141589,1334.00401 321.141589,1336.00307 L321.141589,1417.08602 C321.141589,1419.09405 320.135509,1420.08909 318.13233,1420.08909 L268.780478,1420.08909 C266.768317,1420.08909 265.771219,1421.09311 265.771219,1423.09217 L265.771219,1480.15054 C265.771219,1482.15856 266.768317,1483.15361 268.780478,1483.15361 L318.13233,1483.15361 Z M547.780478,1720.99693 C547.780478,1723.00495 548.776079,1724 550.789737,1724 L558.01196,1724 C573.254382,1724 587.999752,1721.59754 602.248071,1716.79263 C616.484412,1711.98771 628.822375,1704.3859 639.26196,1693.96928 C641.263641,1691.97022 643.26682,1691.97022 645.280478,1693.96928 C654.100153,1703.18468 666.044367,1710.48618 681.090663,1715.89171 C696.13696,1721.29724 711.276079,1724 726.530478,1724 L733.7527,1724 C735.754382,1724 736.76196,1723.00495 736.76196,1720.99693 L736.76196,1666.94163 C736.76196,1664.94257 735.754382,1663.93856 733.7527,1663.93856 L726.530478,1663.93856 C713.289737,1663.93856 701.947375,1659.23673 692.525849,1649.82412 C683.093842,1640.42047 678.38233,1628.9057 678.38233,1615.28879 L678.38233,1486.15668 C678.38233,1484.15762 679.377931,1483.15361 681.391589,1483.15361 L736.76196,1483.15361 C738.765138,1483.15361 739.771219,1482.15856 739.771219,1480.15054 L739.771219,1423.09217 C739.771219,1421.09311 738.765138,1420.08909 736.76196,1420.08909 L681.391589,1420.08909 C679.377931,1420.08909 678.38233,1419.09405 678.38233,1417.08602 L678.38233,1336.00307 C678.38233,1334.00401 677.374752,1333 675.373071,1333 L609.169367,1333 C607.155709,1333 606.160108,1334.00401 606.160108,1336.00307 L606.160108,1417.08602 C606.160108,1419.09405 605.15253,1420.08909 603.150849,1420.08909 L547.780478,1420.08909 C545.76682,1420.08909 544.771219,1421.09311 544.771219,1423.09217 L544.771219,1480.15054 C544.771219,1482.15856 545.76682,1483.15361 547.780478,1483.15361 L603.150849,1483.15361 C605.15253,1483.15361 606.160108,1484.15762 606.160108,1486.15668 L606.160108,1615.28879 C606.160108,1628.9057 601.438116,1640.42047 592.016589,1649.82412 C582.583086,1659.23673 571.2527,1663.93856 558.01196,1663.93856 L550.789737,1663.93856 C548.776079,1663.93856 547.780478,1664.94257 547.780478,1666.94163 L547.780478,1720.99693 Z" id="Fill-1" fill="#000000"></path>
            </g>
        </g>
    </g>
</svg>